<?xml version="1.0" encoding="UTF-8" standalone="no"?>
<!-- Created with Inkscape (http://www.inkscape.org/) -->

<svg
   width="900"
   height="375"
   viewBox="0 0 900 375"
   version="1.1"
   id="svg5"
   inkscape:version="1.1.1 (3bf5ae0d25, 2021-09-20)"
   sodipodi:docname="gtvfrdew.svg"
   xmlns:inkscape="http://www.inkscape.org/namespaces/inkscape"
   xmlns:sodipodi="http://sodipodi.sourceforge.net/DTD/sodipodi-0.dtd"
   xmlns="http://www.w3.org/2000/svg"
   xmlns:svg="http://www.w3.org/2000/svg">
  <sodipodi:namedview
     id="namedview7"
     pagecolor="#ffffff"
     bordercolor="#666666"
     borderopacity="1.0"
     inkscape:pageshadow="2"
     inkscape:pageopacity="0.0"
     inkscape:pagecheckerboard="0"
     inkscape:document-units="px"
     showgrid="false"
     inkscape:zoom="1.0179639"
     inkscape:cx="625.75891"
     inkscape:cy="180.75297"
     inkscape:window-width="1920"
     inkscape:window-height="986"
     inkscape:window-x="-11"
     inkscape:window-y="-11"
     inkscape:window-maximized="1"
     inkscape:current-layer="g1140" />
  <defs
     id="defs2" />
  <g
     inkscape:label="Layer 1"
     inkscape:groupmode="layer"
     id="layer1">
    <g
       id="g1140">
      <g
         id="g1843">
        <path
           fill="#ffffff"
           opacity="1"
           d="m 421.76123,204.50318 c 1.36947,0 2.73894,0 4.115,0 -0.0132,16.41391 0.0329,32.82783 -0.0263,49.23516 -1.24438,-0.0132 -2.48875,-0.0197 -3.72654,-0.0197 -0.0922,-1.42873 -0.20411,-2.85746 -0.28312,-4.27961 -2.10029,2.56118 -5.01042,4.46396 -8.36826,4.78657 -4.15451,0.46747 -8.98716,0.32262 -12.12115,-2.85087 -3.81872,-3.76605 -4.24668,-9.55997 -4.12158,-14.62965 -0.18435,-4.75365 0.34895,-10.02085 3.72654,-13.68155 3.23275,-3.60145 8.46044,-4.35861 13.04949,-3.96357 2.66652,0.13168 5.2277,0.97443 7.63744,2.08713 0.26995,-5.5569 0.0395,-11.12696 0.11852,-16.68386 M 402.694,228.03445 c -1.4814,3.96357 -1.26413,8.29584 -1.06002,12.45034 0.2436,3.49611 1.26412,7.60452 4.69439,9.28344 3.91748,1.58675 8.81598,1.36948 12.25282,-1.23779 2.58093,-2.26489 3.03523,-5.88609 3.15374,-9.12542 0.0724,-4.82608 -0.0197,-9.64556 0.0461,-14.47164 -3.9504,-2.1793 -8.71063,-2.8772 -13.10875,-1.89619 -2.66652,0.53331 -5.02359,2.4295 -5.97827,4.99726 z"
           id="path154"
           style="fill:#000000;fill-opacity:1;stroke:#000000;stroke-width:0.5;stroke-opacity:1.0" />
        <path
           fill="#ffffff"
           opacity="1"
           d="m 308.84561,206.64298 c 1.50115,0 3.00231,-0.007 4.51004,0 8.00615,13.28651 16.01888,26.57303 24.11061,39.81345 0.0724,-13.27993 -0.0527,-26.55986 0.0593,-39.8332 1.40897,0.0132 2.81795,0.0197 4.23351,0.0197 0,15.69626 0.0329,31.39252 -0.0197,47.08877 -1.50115,-0.0132 -3.00231,-0.0132 -4.49687,-0.0198 -8.08516,-13.35894 -16.07155,-26.7903 -24.30813,-40.05048 0.0988,13.32602 -0.0527,26.65862 0.0724,39.98464 -1.38922,0.0724 -2.77186,0.0856 -4.16109,0.0856 -0.007,-15.69625 -0.007,-31.39251 0,-47.08877 z"
           id="path156"
           style="fill:#000000;fill-opacity:1;stroke:#000000;stroke-width:0.5;stroke-opacity:1.0" />
        <path
           fill="#ffffff"
           opacity="1"
           d="m 385.91793,207.45281 c 1.86985,-1.54724 5.72149,-0.54647 5.24744,2.36366 0.34237,1.96861 -1.61308,3.36442 -3.43026,2.93646 -2.78503,0.26336 -3.30517,-3.66729 -1.81718,-5.30012 z"
           id="path158"
           style="fill:#000000;fill-opacity:1;stroke:#000000;stroke-width:0.5;stroke-opacity:1.0" />
        <path
           fill="#ffffff"
           opacity="1"
           d="m 359.79261,219.45544 c 4.76023,-0.80324 10.10644,-0.74399 14.28728,1.97521 3.85823,2.6731 4.87875,7.65719 5.03018,12.0553 0.0395,5.31329 0.46088,11.16647 -2.65335,15.78843 -2.50851,3.89773 -7.45309,5.23429 -11.84462,5.12236 -4.16109,0.15143 -8.78964,-0.62548 -11.71294,-3.85823 -2.73236,-2.98913 -3.23933,-7.22265 -3.39076,-11.10062 -0.0461,-4.79974 -0.2897,-9.92868 2.1003,-14.2807 1.63283,-3.07473 4.83924,-5.01043 8.18391,-5.70175 m -0.18435,3.81873 c -3.83847,1.09952 -5.52398,5.22111 -5.64249,8.90156 -0.24361,4.6944 -0.59915,9.68507 1.20487,14.13585 1.43531,3.42368 5.41863,4.53638 8.82256,4.46396 3.32492,0.11193 7.23582,-0.57939 9.11226,-3.65412 2.2649,-3.92407 1.65917,-8.6448 1.74476,-12.97707 -0.0922,-3.61462 -0.6584,-8.00614 -4.02282,-10.08669 -3.41052,-1.79743 -7.57161,-1.80401 -11.21914,-0.78349 z"
           id="path160"
           style="fill:#000000;fill-opacity:1;stroke:#000000;stroke-width:0.5;stroke-opacity:1.0" />
        <path
           fill="#ffffff"
           opacity="1"
           d="m 435.79173,220.31795 c 5.78734,-1.4419 12.28575,-2.24515 17.82289,0.50697 3.7858,1.83693 5.55032,6.16262 5.60957,10.17886 0.15802,7.5716 0.0197,15.1432 0.0658,22.70822 -1.25096,0.007 -2.49533,0.0132 -3.73313,0.0329 -0.0988,-1.28388 -0.19093,-2.56776 -0.19093,-3.85164 -2.81137,3.79897 -7.88105,4.75365 -12.33184,4.38495 -3.19982,-0.18436 -6.69593,-0.93493 -8.91473,-3.43027 -2.17272,-2.58751 -2.27807,-6.20213 -1.9752,-9.40854 0.21727,-2.70602 1.54724,-5.49764 3.98332,-6.86053 3.0418,-1.80401 6.71568,-2.02128 10.17228,-1.93569 3.14057,0.0395 6.4194,0.73082 8.89498,2.79161 0.0593,-3.91748 0.19752,-8.9674 -3.6607,-11.25205 -5.04993,-2.72578 -11.06112,-1.34314 -16.40733,-0.40821 0.21069,-1.1522 0.42796,-2.3044 0.66498,-3.4566 m 5.29354,15.9267 c -2.51509,0.44113 -4.64831,2.53484 -4.79315,5.13552 -0.26995,2.97597 -0.21728,6.9132 2.92329,8.38801 3.6212,1.46165 7.88105,1.32997 11.54176,0.0395 4.74048,-1.6065 6.00461,-8.70405 2.40316,-12.00922 -3.45002,-2.51509 -8.08516,-2.00812 -12.07506,-1.55382 z"
           id="path162"
           style="fill:#000000;fill-opacity:1;stroke:#000000;stroke-width:0.5;stroke-opacity:1.0" />
        <path
           fill="#ffffff"
           opacity="1"
           d="m 386.06277,219.79781 c 1.40898,0.007 2.82454,0.007 4.2401,0 0.0263,11.31132 0.0461,22.62921 -0.007,33.94053 -1.40898,-0.0197 -2.80479,-0.0197 -4.20718,0.0132 -0.0988,-11.3179 -0.0395,-22.6358 -0.0263,-33.9537 z"
           id="path164"
           style="fill:#000000;fill-opacity:1;stroke:#000000;stroke-width:0.5;stroke-opacity:1.0" />
        <path
           fill="#ffffff"
           opacity="1"
           d="m 647.53979,273.24015 c 1.42872,-0.11193 2.86404,-0.1251 4.31252,-0.11851 0.0856,16.32832 -0.0658,32.65006 0.0724,48.97179 -1.43531,0.10535 -2.87062,0.11852 -4.29935,0.1251 -0.11193,-16.32832 0.0593,-32.65664 -0.0856,-48.97838 z"
           id="path166"
           style="fill:#000000;fill-opacity:1;stroke:#000000;stroke-width:0.5;stroke-opacity:1.0" />
        <path
           fill="#ffffff"
           opacity="1"
           d="m 308.84561,275.11659 c 1.46823,0 2.94305,-0.007 4.41787,-0.0197 0.0461,15.70284 0.0329,31.40568 0.0132,47.10852 -1.4814,-0.0132 -2.95621,-0.0132 -4.43103,-0.0132 -0.007,-15.68967 0,-31.37934 0,-47.0756 z"
           id="path168"
           style="fill:#000000;fill-opacity:1;stroke:#000000;stroke-width:0.5;stroke-opacity:1.0" />
        <path
           fill="#ffffff"
           opacity="1"
           d="m 688.25525,275.12976 c 1.74476,-0.0263 3.48952,-0.0263 5.24745,0.007 5.56348,15.70943 11.45616,31.31351 16.93405,47.05585 -1.57358,0 -3.14057,0 -4.70098,0 -1.59333,-4.76681 -3.37759,-9.46779 -4.91825,-14.24777 -6.65642,-0.15144 -13.31943,-0.0593 -19.96927,-0.0461 -1.646,4.76682 -3.292,9.53363 -4.93801,14.30703 -1.48798,-0.0132 -2.96938,-0.0132 -4.4442,-0.0197 5.61616,-15.67651 11.19281,-31.37276 16.78921,-47.05585 m 0.88225,9.08592 c -2.27806,6.57083 -4.63513,13.12191 -6.88686,19.69933 5.70174,0.007 11.40349,0.0132 17.10523,0 -2.78503,-8.03248 -5.68857,-16.01888 -8.46702,-24.05794 -0.83617,1.34314 -1.21146,2.89038 -1.75135,4.35861 z"
           id="path170"
           style="fill:#000000;fill-opacity:1;stroke:#000000;stroke-width:0.5;stroke-opacity:1.0" />
        <path
           fill="#ffffff"
           opacity="1"
           d="m 530.77911,276.0186 c 1.81719,-1.38923 5.54373,-0.59256 5.23428,2.23197 0.47405,2.54143 -2.48875,3.82531 -4.51004,2.9233 -1.94886,-0.81642 -2.02787,-3.73971 -0.72424,-5.15527 z"
           id="path172"
           style="fill:#000000;fill-opacity:1;stroke:#000000;stroke-width:0.5;stroke-opacity:1.0" />
        <path
           fill="#ffffff"
           opacity="1"
           d="m 716.40185,275.76182 c 1.5209,-0.6979 3.9504,-0.59256 4.67464,1.23121 0.22386,1.44189 0.36212,3.45002 -1.24437,4.16109 -1.61309,0.53989 -4.12159,0.42137 -4.54955,-1.63283 -0.14485,-1.30364 -0.23702,-3.04181 1.11928,-3.75947 z"
           id="path174"
           style="fill:#000000;fill-opacity:1;stroke:#000000;stroke-width:0.5;stroke-opacity:1.0" />
        <path
           fill="#ffffff"
           opacity="1"
           d="m 360.97773,279.69247 c 1.38922,-0.29628 2.78503,-0.54647 4.19401,-0.79667 -0.0593,3.18008 -0.0263,6.36673 -0.0329,9.54681 3.75946,0.0132 7.51234,-0.0132 11.27181,0.0197 -0.22386,1.19829 -0.44113,2.40316 -0.63865,3.60803 -3.54878,0 -7.09097,0 -10.63316,0 0.0197,6.79469 -0.0263,13.59596 0.0197,20.39065 0.0988,2.31757 0.62548,5.2277 3.06156,6.19555 2.65335,1.0271 5.60299,0.54647 8.33535,0.13168 -0.21069,1.15878 -0.42138,2.31098 -0.62548,3.46976 -3.47636,0.823 -7.328,1.04028 -10.64633,-0.46746 -3.19983,-1.6065 -4.09525,-5.47789 -4.24668,-8.75014 -0.0461,-6.98562 0,-13.97783 -0.0132,-20.97004 -2.27148,0 -4.54296,0 -6.80786,0 0.20411,-1.22462 0.41479,-2.44266 0.65182,-3.6607 2.04762,0.0527 4.10183,0.0395 6.15604,0.0395 -0.0132,-2.9233 0.0395,-5.84001 -0.0461,-8.75672 z"
           id="path176"
           style="fill:#000000;fill-opacity:1;stroke:#000000;stroke-width:0.5;stroke-opacity:1.0" />
        <path
           fill="#ffffff"
           opacity="1"
           d="m 509.64447,279.6793 c 1.38264,-0.26994 2.76528,-0.52672 4.16109,-0.75058 -0.0593,3.16691 -0.0263,6.3404 -0.0329,9.51389 3.7858,0 7.5716,0.0197 11.3574,-0.007 -0.22386,1.19171 -0.4543,2.38999 -0.66498,3.58828 -3.56853,0.0922 -7.13048,0.0263 -10.69242,0.0461 0.0263,6.57742 -0.0527,13.15483 0.0395,19.73225 0.11193,2.43608 0.38846,5.46472 2.83112,6.74202 2.71261,1.1522 5.82684,0.75057 8.63163,0.1646 -0.23703,1.1917 -0.4543,2.38999 -0.70449,3.58828 -3.60145,0.75716 -7.64402,1.07319 -10.9887,-0.72424 -3.06156,-1.94228 -3.77263,-5.82026 -3.87139,-9.17151 -0.13168,-6.77494 -0.0197,-13.55646 -0.0527,-20.3314 -2.25831,0 -4.51004,0 -6.76177,0 0.21069,-1.20487 0.40162,-2.41633 0.61231,-3.6212 2.05421,0 4.10842,0.0132 6.16263,-0.0329 -0.0329,-2.91013 0,-5.82684 -0.0263,-8.73697 z"
           id="path178"
           style="fill:#000000;fill-opacity:1;stroke:#000000;stroke-width:0.5;stroke-opacity:1.0" />
        <path
           fill="#ffffff"
           opacity="1"
           d="m 852.17053,279.69905 c 1.41556,-0.29628 2.85746,-0.55964 4.29936,-0.823 0,3.19324 -0.007,6.3799 0,9.57314 3.71996,-0.0197 7.43992,0.0329 11.15988,-0.0395 -0.19752,1.22462 -0.40163,2.44924 -0.63865,3.6607 -3.50927,0 -7.01855,0 -10.52123,0 0,6.80127 0,13.60255 -0.007,20.40382 -0.0593,2.33074 0.6584,5.11577 2.9628,6.18238 2.68627,1.00735 5.66224,0.59914 8.42094,0.0856 -0.25019,1.16537 -0.46746,2.33732 -0.68474,3.50269 -3.48952,0.84933 -7.38725,1.06002 -10.70558,-0.4938 -3.07473,-1.63942 -4.03599,-5.34621 -4.115,-8.57896 -0.2897,-6.99879 -0.14485,-14.01075 -0.0988,-21.01613 -2.25832,-0.13826 -4.51004,-0.0856 -6.76177,-0.079 0.29628,-1.16536 0.0988,-2.60068 0.79008,-3.58828 1.96203,-0.11851 3.93723,-0.0132 5.91902,-0.0395 -0.007,-2.91671 0.0132,-5.83342 -0.0198,-8.75014 z"
           id="path180"
           style="fill:#000000;fill-opacity:1;stroke:#000000;stroke-width:0.5;stroke-opacity:1.0" />
        <path
           fill="#ffffff"
           opacity="1"
           d="m 333.60145,288.02123 c 4.0755,-0.77691 8.72381,-0.66498 12.21333,1.83035 2.95621,2.16614 4.03599,5.97169 4.02282,9.48755 -0.0329,7.62427 0.0395,15.25513 -0.0395,22.8794 -1.36289,-0.0263 -2.72578,-0.0329 -4.08208,-0.0329 -0.0198,-6.97246 0.0395,-13.94491 -0.0329,-20.91737 -0.13827,-3.19982 -0.61232,-7.18314 -3.77264,-8.86865 -3.26566,-1.47482 -7.19631,-1.32997 -10.52781,-0.13826 -3.64096,1.3563 -5.08944,5.48447 -5.17503,9.07275 -0.18435,6.94612 -0.0329,13.89883 -0.0724,20.85153 -1.37606,0.007 -2.75212,0.007 -4.12159,0.007 0.0395,-11.25864 -0.079,-22.51728 0.0593,-33.76934 1.15878,0.0132 2.31757,0.0132 3.48294,0.007 0.23044,1.43531 0.37528,2.88379 0.44112,4.34544 2.01471,-2.27148 4.52321,-4.27302 7.60452,-4.75365 z"
           id="path182"
           style="fill:#000000;fill-opacity:1;stroke:#000000;stroke-width:0.5;stroke-opacity:1.0" />
        <path
           fill="#ffffff"
           opacity="1"
           d="m 382.54033,293.40694 c 2.4295,-4.31252 7.67695,-6.06386 12.39768,-5.79392 4.34544,-0.0724 8.95424,1.98837 10.90969,6.03753 1.67233,3.57511 1.89619,7.72962 1.34972,11.58784 -0.21069,1.47482 -1.8962,1.59991 -3.08132,1.63942 -6.63009,0.0263 -13.26017,-0.007 -19.88368,0.007 0.15802,4.12159 0.72424,9.32295 5.01701,11.23889 5.15527,2.02787 10.94919,1.40239 16.24931,0.27653 -0.17776,1.14562 -0.34895,2.3044 -0.51355,3.46318 -5.72149,1.50774 -12.06189,1.83694 -17.64512,-0.36212 -4.45737,-1.75134 -6.72885,-6.54449 -6.99879,-11.09404 -0.40163,-5.68199 -0.6584,-11.85778 2.19905,-16.99989 m 6.14946,-1.02052 c -3.84506,2.28465 -4.31252,7.17656 -4.49687,11.19939 6.43257,0.0132 12.87172,0 19.30429,0.007 0.0988,-3.7858 -0.0197,-8.4341 -3.43027,-10.85702 -3.35125,-2.08054 -7.86129,-1.95544 -11.37715,-0.34895 z"
           id="path184"
           style="fill:#000000;fill-opacity:1;stroke:#000000;stroke-width:0.5;stroke-opacity:1.0" />
        <path
           fill="#ffffff"
           opacity="1"
           d="m 449.55229,287.96856 c 4.04916,-0.71107 8.65797,-0.58598 12.08823,1.95545 2.87721,2.19247 3.93723,5.93877 3.9109,9.41512 -0.0395,7.62427 0.0527,15.24854 -0.0527,22.87282 -1.3563,-0.0198 -2.70602,-0.0198 -4.04916,-0.007 -0.0527,-6.76177 0,-13.52353 -0.0263,-20.27872 -0.11851,-2.83112 -0.29628,-5.95194 -2.15297,-8.25634 -1.94228,-2.11346 -5.03018,-2.40974 -7.72962,-2.27148 -2.73236,0.0329 -5.68199,0.84275 -7.42017,3.09448 -2.0147,2.41633 -2.17272,5.70833 -2.27148,8.71064 -0.0263,6.32722 0.007,12.66103 -0.007,18.98825 -1.37606,0 -2.73895,0 -4.10842,0.007 0.0263,-11.26523 -0.0922,-22.53045 0.0593,-33.79568 1.16537,0.0263 2.33073,0.0395 3.50269,0.0395 0.18435,1.43531 0.34236,2.87062 0.47404,4.31252 2.00154,-2.36366 4.64173,-4.31252 7.78229,-4.78657 z"
           id="path186"
           style="fill:#000000;fill-opacity:1;stroke:#000000;stroke-width:0.5;stroke-opacity:1.0" />
        <path
           fill="#ffffff"
           opacity="1"
           d="m 475.32866,288.89032 c 5.47789,-1.36289 11.48908,-2.08055 16.86821,0.0527 4.10841,1.6065 6.49841,6.04411 6.43915,10.3303 -0.0395,7.65061 0.0527,15.29463 -0.0527,22.93866 -1.17854,-0.0132 -2.35049,-0.0132 -3.52244,0 -0.11193,-1.21146 -0.21069,-2.4295 -0.28311,-3.64096 -2.04104,2.49534 -5.0631,4.01624 -8.27609,4.21376 -4.32569,0.28312 -9.29003,0.11193 -12.62812,-3.02864 -2.7982,-3.22616 -2.78503,-7.9798 -1.81718,-11.91045 0.92176,-3.79897 4.7734,-5.89268 8.40118,-6.35356 4.80632,-0.63865 10.22496,-0.60573 14.24778,2.48875 0.0263,-3.93065 0.17777,-9.03983 -3.75946,-11.27181 -5.06968,-2.5941 -11.04137,-1.31022 -16.37441,-0.33579 0.23702,-1.16536 0.4938,-2.32415 0.75716,-3.48293 m 4.85241,16.05838 c -3.69363,0.6979 -5.00384,4.8129 -4.49029,8.11807 0.0395,2.41633 1.43531,4.92483 3.85822,5.6359 3.65412,1.05344 7.77571,0.98102 11.2784,-0.59256 5.02359,-2.10029 5.33962,-10.72533 0.11192,-12.75979 -3.43026,-1.19829 -7.24898,-1.21146 -10.75825,-0.40162 z"
           id="path188"
           style="fill:#000000;fill-opacity:1;stroke:#000000;stroke-width:0.5;stroke-opacity:1.0" />
        <path
           fill="#ffffff"
           opacity="1"
           d="m 552.69725,287.98173 c 5.10919,-0.76375 11.07429,-0.65182 15.15637,2.95621 3.75288,3.69363 3.95699,9.36245 3.86481,14.30045 0.14485,4.65489 -0.21727,9.75749 -3.29858,13.50379 -2.7587,3.35125 -7.3675,4.33885 -11.50884,4.29277 -4.17425,0.0132 -8.8884,-0.82959 -11.66685,-4.24668 -2.8377,-3.3776 -3.04181,-8.0259 -3.1669,-12.21991 -0.0132,-4.57588 -0.0132,-9.5468 2.5941,-13.51695 1.73817,-2.80479 4.83265,-4.49688 8.02589,-5.06968 m -0.1646,3.80555 c -2.38999,0.61231 -4.39811,2.5085 -5.13552,4.85899 -1.26413,3.6212 -0.77691,7.49918 -0.87567,11.25206 0.0395,3.10765 0.37529,6.59058 2.62702,8.96082 1.93569,2.15297 5.03017,2.43608 7.74936,2.54143 3.17349,0.0132 6.85395,-0.6584 8.71064,-3.52903 2.43608,-3.98332 1.70525,-8.85548 1.83035,-13.29309 -0.0395,-3.7068 -0.76374,-8.19708 -4.35202,-10.13937 -3.2525,-1.55382 -7.12389,-1.50773 -10.55416,-0.65181 z"
           id="path190"
           style="fill:#000000;fill-opacity:1;stroke:#000000;stroke-width:0.5;stroke-opacity:1.0" />
        <path
           fill="#ffffff"
           opacity="1"
           d="m 582.81906,292.66953 c 4.56929,-5.54372 13.27993,-6.60375 19.37013,-3.1274 3.02205,1.9357 4.37177,5.61616 4.41786,9.07934 0.0263,7.83496 -0.0592,15.66992 0.0461,23.50488 -1.39581,0.0658 -2.77845,0.0724 -4.16109,0.0724 -0.0329,-7.16998 0.0461,-14.35312 -0.0395,-21.5231 -0.13168,-3.17349 -0.86251,-7.14364 -4.18084,-8.48019 -3.18666,-1.20488 -6.89345,-1.10612 -10.08011,0.0658 -3.35784,1.3168 -5.02359,4.99067 -5.10918,8.42093 -0.0329,7.16998 0,14.33996 -0.0132,21.50993 -1.42873,0 -2.85746,0 -4.2796,0 -0.0263,-11.2323 0.0395,-22.47119 -0.0329,-33.7035 1.23121,-0.0461 2.469,-0.0395 3.70679,0.007 0.11851,1.38264 0.24361,2.77845 0.35554,4.17425 z"
           id="path192"
           style="fill:#000000;fill-opacity:1;stroke:#000000;stroke-width:0.5;stroke-opacity:1.0" />
        <path
           fill="#ffffff"
           opacity="1"
           d="m 616.35796,288.93641 c 5.60957,-1.46824 11.84461,-2.17272 17.30934,0.19093 3.91748,1.69867 6.05069,5.96511 6.10336,10.09986 0.19094,7.65719 0.0527,15.32097 0.0658,22.98475 -1.25096,-0.0132 -2.49533,-0.0198 -3.73312,-0.0198 -0.0724,-1.20487 -0.17119,-2.40316 -0.22386,-3.60144 -1.96203,2.31756 -4.75365,3.8648 -7.79546,4.12816 -4.34544,0.38188 -9.25052,0.27653 -12.77954,-2.64018 -3.16691,-2.94963 -2.86404,-7.72303 -2.34391,-11.64051 0.71766,-3.96357 4.53638,-6.38648 8.29584,-6.89345 4.87875,-0.69132 10.47515,-0.75058 14.53089,2.48217 0.0132,-3.97016 0.19094,-9.10568 -3.81213,-11.35082 -5.05652,-2.54801 -10.99528,-1.2773 -16.30199,-0.2897 0.23044,-1.1522 0.4543,-2.3044 0.68474,-3.45001 m 4.70756,16.06496 c -2.74553,0.67157 -4.50346,3.40393 -4.27302,6.17579 -0.28311,2.77845 0.4543,6.26139 3.39076,7.33458 3.75288,1.3168 8.10491,1.21804 11.75244,-0.41479 5.0236,-2.13322 5.30671,-10.79118 0.007,-12.76638 -3.46977,-1.18512 -7.34116,-1.21146 -10.87677,-0.3292 z"
           id="path194"
           style="fill:#000000;fill-opacity:1;stroke:#000000;stroke-width:0.5;stroke-opacity:1.0" />
        <path
           fill="#ffffff"
           opacity="1"
           d="m 756.45233,292.57736 c 3.09448,-4.32569 8.87523,-5.47789 13.8659,-4.81291 3.5422,0.34896 6.95929,2.39658 8.56579,5.63591 2.56118,4.81949 2.0147,10.45539 2.00154,15.71601 -0.21069,5.18161 -2.83771,10.7385 -7.94031,12.66103 -5.34621,1.91595 -11.522,1.39581 -16.53243,-1.25754 -0.0461,5.66224 -0.007,11.3179 -0.0198,16.98014 -1.37605,0 -2.75211,-0.007 -4.115,0 0,-16.34808 0,-32.70274 0,-49.05081 1.17854,-0.007 2.37024,-0.007 3.56853,-0.007 0.14485,1.38264 0.31603,2.77186 0.60573,4.13475 m 2.87062,1.09294 c -2.57434,2.46242 -2.81795,6.2548 -2.92329,9.59289 -0.007,4.55613 -0.0395,9.10568 0.0263,13.6618 4.53638,2.38341 10.14595,3.213 14.99836,1.29047 3.97015,-1.73159 5.15527,-6.43257 5.21452,-10.38297 -0.0461,-3.90431 0.36212,-8.01273 -1.25096,-11.6866 -0.98101,-2.35708 -3.18007,-4.14134 -5.70832,-4.53638 -3.50928,-0.50038 -7.55185,-0.40821 -10.35664,2.06079 z"
           id="path196"
           style="fill:#000000;fill-opacity:1;stroke:#000000;stroke-width:0.5;stroke-opacity:1.0" />
        <path
           fill="#ffffff"
           opacity="1"
           d="m 797.60892,287.99489 c 5.09601,-0.78349 11.04795,-0.67156 15.1432,2.91672 3.79897,3.70021 4.00307,9.41512 3.89114,14.38604 0.15802,4.62197 -0.22385,9.69165 -3.25249,13.43794 -2.78503,3.34468 -7.40042,4.35203 -11.56809,4.29936 -4.18084,0.0329 -8.83573,-0.85592 -11.64052,-4.23352 -2.8377,-3.39734 -3.01547,-8.03906 -3.17348,-12.25282 -0.0329,-4.58247 0.0263,-9.52047 2.60068,-13.50379 1.73817,-2.79161 4.8129,-4.49687 7.99956,-5.04993 m -0.079,3.77264 c -4.52321,1.01393 -6.11654,6.06386 -6.07703,10.17228 0.13826,4.6088 -0.67816,9.63898 1.74476,13.8264 1.80401,2.91671 5.45813,3.63437 8.63821,3.63437 3.1669,-0.0132 6.86711,-0.60573 8.69088,-3.52244 2.5085,-3.9504 1.67892,-8.82256 1.83693,-13.24701 0.0329,-3.73971 -0.76374,-8.25634 -4.37177,-10.2052 -3.213,-1.567 -7.06464,-1.46824 -10.46198,-0.6584 z"
           id="path198"
           style="fill:#000000;fill-opacity:1;stroke:#000000;stroke-width:0.5;stroke-opacity:1.0" />
        <path
           fill="#ffffff"
           opacity="1"
           d="m 414.01186,288.46894 c 1.18512,-0.0197 2.37024,-0.0197 3.55536,-0.0132 0.15801,1.59333 0.3292,3.18008 0.46746,4.77999 3.00889,-4.85241 9.32953,-6.23505 14.57698,-4.7734 -0.28311,1.19829 -0.5333,2.40316 -0.76374,3.61461 -3.43685,-0.71107 -7.44651,-0.89542 -10.29738,1.50116 -2.89038,2.58751 -3.23933,6.73543 -3.39076,10.3698 -0.0593,6.08362 0.0132,12.16723 -0.0329,18.25085 -1.36289,-0.007 -2.72578,-0.007 -4.08208,0.0132 -0.0527,-11.25206 0.0132,-22.49753 -0.0329,-33.74301 z"
           id="path200"
           style="fill:#000000;fill-opacity:1;stroke:#000000;stroke-width:0.5;stroke-opacity:1.0" />
        <path
           fill="#ffffff"
           opacity="1"
           d="m 716.0529,288.48211 c 1.42873,-0.0461 2.86404,-0.0461 4.31252,0 -0.0527,11.23889 0.007,22.47778 -0.0329,33.71667 -1.42873,-0.007 -2.84429,-0.007 -4.25985,0 -0.0329,-11.23889 0.0198,-22.47778 -0.0197,-33.71667 z"
           id="path202"
           style="fill:#000000;fill-opacity:1;stroke:#000000;stroke-width:0.5;stroke-opacity:1.0" />
        <path
           fill="#ffffff"
           opacity="1"
           d="m 732.62483,293.24893 c 2.91013,-4.91825 9.2571,-6.16921 14.47822,-4.83924 -0.23044,1.20487 -0.4543,2.41632 -0.67157,3.62778 -3.4566,-0.63865 -7.43334,-0.85592 -10.32371,1.50115 -2.7192,2.39 -3.213,6.2548 -3.38418,9.66532 -0.0922,6.32722 0.0132,12.66761 -0.0461,19.00142 -1.42214,-0.0132 -2.8377,-0.0132 -4.24668,0 -0.0527,-11.25205 -0.007,-22.5107 -0.0198,-33.76934 1.23121,0.007 2.47558,0.0132 3.71996,0.0461 0.13826,1.58674 0.31603,3.17349 0.4938,4.76682 z"
           id="path204"
           style="fill:#000000;fill-opacity:1;stroke:#000000;stroke-width:0.5;stroke-opacity:1.0" />
        <path
           fill="#ffffff"
           opacity="1"
           d="m 827.85582,293.45303 c 2.74553,-5.12235 9.30319,-6.45232 14.54406,-4.98409 -0.25678,1.19171 -0.51356,2.38999 -0.75058,3.58828 -3.24591,-0.58597 -6.92637,-0.90201 -9.75749,1.11928 -2.99572,2.08055 -3.6607,6.02436 -3.86481,9.40854 -0.079,6.53133 -0.007,13.06924 -0.0329,19.60715 -1.43531,0 -2.86404,0 -4.28618,0 0.0593,-11.2718 -0.10535,-22.53703 0.0856,-33.80226 1.18512,0.0395 2.39658,0.0658 3.60145,0.11193 0.15143,1.646 0.34895,3.292 0.46088,4.95117 z"
           id="path206"
           style="fill:#000000;fill-opacity:1;stroke:#000000;stroke-width:0.5;stroke-opacity:1.0" />
        <path
           fill="#ffffff"
           opacity="1"
           d="m 530.89104,288.44919 c 1.42215,-0.007 2.85087,-0.007 4.2796,0 -0.007,11.25206 0.0197,22.50412 -0.0132,33.76276 -1.44848,-0.007 -2.89037,-0.0132 -4.32568,-0.10535 0.13168,-11.21913 0.0198,-22.43827 0.0593,-33.65741 z"
           id="path208"
           style="fill:#000000;fill-opacity:1;stroke:#000000;stroke-width:0.5;stroke-opacity:1.0" />
      </g>
      <g
         id="g1438">
        <path
           id="path2-0-3"
           style="fill:#2ec6b3;fill-opacity:1;stroke-width:0.658398"
           d="m 40.699138,37.500043 c -0.783496,0.862517 -1.548051,1.738176 -2.311795,2.620445 1.28388,1.494536 2.785382,2.76484 4.306286,4.009216 8.519697,7.209481 17.151382,14.300944 25.90811,21.214144 7.433337,5.892661 14.945195,11.672993 22.543106,17.341811 8.434104,6.314077 16.973555,12.483812 25.638095,18.481801 8.36827,5.80709 16.85564,11.45577 25.4741,16.88757 5.53056,3.4961 11.11326,6.92638 16.76892,10.2184 5.16844,3.02206 10.39028,5.9655 15.67723,8.79004 6.07703,3.213 12.21273,6.33363 18.47412,9.18448 4.9775,2.29124 10.01472,4.45754 15.13707,6.42617 6.13629,2.37024 12.3909,4.45694 18.75763,6.13581 7.99297,2.11346 16.1971,3.52899 24.47977,3.71994 -8.44727,0.66495 -16.94768,-0.32951 -25.31594,-1.45537 0.17776,1.36946 0.37489,2.74568 0.59216,4.10857 10.13278,1.28387 20.46341,2.29127 30.6291,0.8757 -1.77768,0.48723 -3.57537,0.90839 -5.40579,1.09273 -8.52622,0.84933 -17.11129,0.98844 -25.65733,0.52757 -8.96082,-0.48723 -17.88221,-1.54776 -26.74427,-2.98304 -8.08516,-1.36289 -16.12442,-2.99603 -24.09106,-4.91198 -6.09678,-1.47483 -12.16717,-3.04793 -18.19153,-4.80586 -8.45386,-2.40974 -16.83542,-5.06308 -25.15101,-7.9008 -6.79469,-2.35049 -13.5695,-4.77302 -20.2786,-7.35396 -9.19126,-3.52243 -18.303386,-7.22998 -27.343206,-11.12113 -8.776481,-3.79238 -17.493487,-7.72979 -26.125112,-11.85791 -8.243169,-3.78582 -16.236337,-8.10449 -24.393915,-12.06147 -0.520142,1.03368 -1.034228,2.0672 -1.541202,3.10744 -0.09217,-0.079 -0.282198,-0.24325 -0.380957,-0.32887 v 0.29608 c 7.999562,4.94462 16.696783,8.63133 25.097968,12.82532 8.183913,3.87797 16.433245,7.6185 24.748838,11.20018 9.53364,4.1216 19.153396,8.03239 28.851626,11.73259 6.76177,2.56776 13.55659,5.04926 20.40395,7.37999 7.99298,2.77846 16.07734,5.28687 24.202,7.6703 6.4194,1.82375 12.85914,3.60804 19.35755,5.12895 8.11149,1.93569 16.28178,3.65486 24.51836,5.00456 8.93449,1.4419 17.93495,2.53453 26.97479,2.98883 8.6382,0.65843 17.27648,-0.007 25.9081,-0.29608 -8.34851,1.17198 -16.69748,2.39003 -25.125,2.85095 -7.67036,0.52012 -15.35337,0.58599 -23.0369,0.5333 -0.0724,1.09298 -0.13187,2.19218 -0.19771,3.29167 0.0658,-1.09949 0.12529,-2.19869 0.19771,-3.29167 -6.49841,-0.15801 -12.99675,-0.42175 -19.48199,-0.88918 -6.67618,-0.50042 -13.34597,-1.11895 -19.98922,-1.92217 -5.95194,-0.73082 -11.89078,-1.55369 -17.81638,-2.50179 -5.95852,-0.94153 -11.90328,-2.00191 -17.82888,-3.16728 -5.95194,-1.16537 -11.88445,-2.42293 -17.7903,-3.799 -6.64984,-1.58673 -13.293689,-3.20674 -19.851353,-5.14244 -0.730824,1.21145 -1.138947,2.56776 -1.4023,3.9504 7.044854,2.04765 14.169203,3.83886 21.326013,5.48484 5.87293,1.36289 11.77871,2.58055 17.69766,3.74592 5.81374,1.13248 11.65375,2.16625 17.51351,3.08146 6.00461,0.96123 12.02864,1.79748 18.06617,2.50855 6.52475,0.76371 13.0699,1.41607 19.62757,1.88355 5.21453,0.3621 10.43505,0.65789 15.66274,0.7764 9.07276,0.19091 18.1592,0.22365 27.21879,-0.38866 9.10567,-0.50699 18.13859,-1.77744 27.1455,-3.17983 -8.85548,3.134 -17.88833,5.76729 -27.06643,7.77543 -7.67036,1.67892 -15.40011,3.06832 -23.17581,4.14811 -6.35356,0.88227 -12.72701,1.62663 -19.11349,2.17968 -5.42522,0.46743 -10.85702,0.86889 -16.2954,1.13224 -5.26062,0.28315 -10.52782,0.42753 -15.8016,0.51311 -6.09021,0.40822 -12.21385,-0.2827 -18.29089,0.0926 -0.44771,1.31019 -0.21635,2.70617 0.30379,3.95716 5.27378,0.14483 10.55402,0.2036 15.83439,0.17071 5.95852,-0.15802 11.91671,-0.26266 17.87517,-0.57869 5.59647,-0.28971 11.18668,-0.67221 16.76998,-1.16601 6.28113,-0.56624 12.55555,-1.24437 18.79719,-2.12665 7.72303,-1.07974 15.41907,-2.38318 23.03017,-4.05553 7.09756,-1.50772 14.0899,-3.44974 21.04919,-5.49737 -7.1634,5.2804 -14.26029,10.63916 -21.35784,16.00509 -10.54757,7.84814 -21.07565,15.72307 -31.53763,23.68313 -13.68156,10.0801 -27.19258,20.3973 -40.82147,30.54331 -9.92867,7.47277 -19.9029,14.88623 -29.79866,22.40516 -15.82135,11.9171 -31.77465,23.6756 -47.490666,35.72432 0.763744,1.04028 1.560494,2.05507 2.396668,3.03608 15.373623,-11.38373 30.628488,-22.92575 45.949458,-34.38856 9.90234,-7.45309 19.84431,-14.85311 29.74665,-22.31937 10.84385,-8.14441 21.72134,-16.24359 32.54544,-24.42091 11.3574,-8.49337 22.69472,-16.9999 34.05871,-25.48661 12.25941,-9.19786 24.52566,-18.37523 36.77849,-27.58628 1.15213,-0.86909 2.56111,-1.278 3.91083,-1.73892 -15.07736,12.70054 -30.1941,25.36221 -45.31096,38.01009 0.079,1.69868 0.18369,3.39057 0.31537,5.08265 20.17338,-16.70357 39.91248,-33.94747 60.55997,-50.07824 5.38565,-4.31911 10.8243,-8.57231 16.19026,-12.91114 8.11807,-6.75518 15.79502,-14.017 23.36003,-21.37132 9.22419,-8.98059 18.04642,-18.3502 26.99408,-27.6007 5.97169,-6.11656 11.73229,-12.469398 18.2571,-18.01314 7.13048,-5.807089 14.24765,-11.634469 21.30576,-17.533754 0.85586,-0.480619 0.86303,-1.441751 0.93546,-2.310839 -1.72494,0.217272 -3.57571,0.316084 -5.03735,1.369557 -6.03088,4.279568 -12.154,8.638288 -19.17907,11.133612 -5.19477,2.07396 -11.00812,2.857173 -15.59717,6.254517 -2.85087,2.047592 -4.52972,5.188852 -6.37983,8.079215 -6.30089,9.527032 -14.02438,18.006422 -22.01077,26.137632 -6.68276,7.32799 -14.91257,13.12283 -23.65612,17.73824 -3.75947,2.19903 -7.65673,4.1408 -11.71906,5.71439 -8.28268,3.1669 -17.41455,4.76651 -26.20419,2.98883 -11.41666,-2.24516 -21.65518,-8.36103 -30.70818,-15.47175 -0.92834,1.04024 -1.84977,2.08024 -2.75837,3.14023 9.71799,7.55844 20.68661,14.29373 33.03161,16.28868 -9.68513,-0.53992 -18.97496,-3.8909 -27.83703,-7.62402 -0.33578,1.36951 -0.65827,2.74508 -0.98088,4.1211 10.17228,4.33888 20.96951,7.54552 32.07679,7.98667 -10.47521,0.7374 -20.93014,-1.14502 -30.97733,-3.96293 -5.49764,-1.53409 -10.89639,-3.37838 -16.21626,-5.42603 -4.77999,-1.83036 -9.48116,-3.83159 -14.13605,-5.95167 -6.66959,-3.04181 -13.2474,-6.27442 -19.69314,-9.75734 -5.29354,-2.80479 -10.51393,-5.75415 -15.69554,-8.76303 -5.3462,-3.14714 -10.6668,-6.33372 -15.90767,-9.64549 C 136.98286,109.516 128.62144,103.99774 120.37169,98.322349 111.71372,92.363798 103.1484,86.274203 94.714295,79.999637 86.839843,74.225488 79.096485,68.266849 71.406372,62.255623 62.675987,55.408295 54.057207,48.422604 45.563846,41.285514 44.003438,39.948995 42.503155,38.514012 40.699138,37.500043 Z M 226.01883,150.36229 c 0.32261,-1.37602 0.6451,-2.75159 0.98088,-4.1211 -4.76023,-2.10685 -9.43507,-4.43107 -13.98461,-6.95276 -7.8613,-4.39151 -15.42006,-9.30339 -22.7283,-14.55742 -0.50368,0.48392 -1.00209,0.97298 -1.49589,1.46594 -0.4938,0.49301 -0.98299,0.98973 -1.46691,1.4901 7.29507,5.25403 14.80735,10.23153 22.63573,14.6626 5.22111,2.92986 10.54829,5.67534 16.0591,8.01264 z M 187.324,127.68705 c 0.48392,-0.50037 0.97311,-0.99709 1.46691,-1.4901 0.4938,-0.49296 0.99221,-0.98202 1.49589,-1.46594 -4.72732,-3.39734 -9.37569,-6.89991 -13.90548,-10.55404 -4.56271,-3.63436 -9.02627,-7.38724 -13.43097,-11.20595 -5.48447,-4.786603 -10.8636,-9.691565 -16.14397,-14.695393 -5.1421,-4.845805 -10.12619,-9.856295 -15.11686,-14.853552 -5.85318,-6.057248 -11.68628,-12.133951 -17.30901,-18.408524 -4.46395,-4.858993 -8.75021,-9.883112 -13.06931,-14.873798 -0.91518,0.921773 -3.733194,1.909229 -2.205706,3.489389 3.983316,4.878745 8.209786,9.56041 12.403796,14.261387 0.0766,-0.160485 0.159,-0.317461 0.24598,-0.469703 0.0869,-0.152189 0.17836,-0.299585 0.2758,-0.442688 -0.0975,0.143103 -0.18889,0.290499 -0.2758,0.442688 -0.087,0.152242 -0.16941,0.309218 -0.24598,0.469703 5.58982,6.182377 11.34489,12.206343 17.11906,18.217568 5.3923,5.444936 10.83062,10.850566 16.40727,16.111169 4.99725,4.714158 10.07977,9.335984 15.2548,13.859194 4.32569,3.73974 8.69759,7.41998 13.14838,11.00828 4.54954,3.64093 9.16447,7.18978 13.8852,10.60031 z m 34.48113,9.88948 c 0.9086,-1.05999 1.83003,-2.09999 2.75837,-3.14023 -8.84231,-6.96588 -16.76991,-15.03156 -24.13741,-23.52498 -4.56929,-5.28692 -8.92106,-10.75121 -13.09531,-16.354207 -6.99221,-9.40196 -13.50978,-19.147051 -19.65265,-29.12843 -3.59487,-5.87948 -6.95271,-11.903788 -10.3698,-17.888645 -1.13245,0.559621 -2.25825,1.132672 -3.37753,1.718616 3.77922,7.624279 8.22967,14.905954 12.71338,22.135187 5.58323,8.993725 11.53517,17.764352 17.88873,26.237968 4.56271,6.149441 9.37535,12.114001 14.42528,17.868401 7.01196,7.94692 14.51818,15.49895 22.84694,22.07632 z m -4.35255,82.73466 c -0.13168,-1.69208 -0.23636,-3.38397 -0.31537,-5.08265 -13.04949,10.93603 -26.07297,21.89826 -39.13563,32.8146 0.12509,0.76045 0.26,1.52097 0.40893,2.27898 -0.14893,-0.75801 -0.28384,-1.51853 -0.40893,-2.27898 -10.40931,8.7369 -20.83172,17.44747 -31.22127,26.20419 -9.53363,7.92055 -18.99537,15.92703 -28.50925,23.86733 -9.19785,7.71639 -18.388719,15.43297 -27.599736,23.13625 0.05267,0.81971 0.111467,1.64106 0.176517,2.4632 -0.06518,-0.82214 -0.123845,-1.64349 -0.176517,-2.4632 -5.207945,4.42445 -10.514531,8.73683 -15.682979,13.21396 0.796671,1.03368 1.625788,2.04749 2.488292,3.03509 4.569296,-3.71338 9.053567,-7.55178 13.58334,-11.31783 9.184683,-7.71645 18.402413,-15.38734 27.580513,-23.11696 9.10567,-7.62427 18.2311,-15.22155 27.31043,-22.87881 10.9887,-9.19778 21.99011,-18.37647 32.95247,-27.60066 12.85197,-10.75167 25.71039,-21.50301 38.54919,-32.27451 z m 9.37542,-55.12813 c -0.21727,-1.36289 -0.4144,-2.73911 -0.59216,-4.10856 -7.0383,-1.06005 -14.0236,-2.50767 -20.91704,-4.25903 -7.09756,-1.804 -14.11656,-3.8985 -21.06268,-6.22267 -0.16138,0.2864 -0.31755,0.57627 -0.46879,0.868 -0.15116,0.29179 -0.29739,0.58619 -0.43974,0.88247 0.14235,-0.29628 0.28858,-0.59068 0.43974,-0.88247 0.15124,-0.29173 0.30748,-0.5816 0.46879,-0.868 -4.62856,-1.59329 -9.25698,-3.2058 -13.81969,-4.99005 -7.80204,-2.94304 -15.48544,-6.18227 -23.08996,-9.60599 -6.09679,-2.71259 -12.08856,-5.65598 -18.09317,-8.55953 -5.1816,-2.67308 -10.38296,-5.29995 -15.49873,-8.08499 -5.79392,-2.99574 -11.29815,-6.55104 -17.09207,-9.5336 -0.849336,0.84934 -1.435114,1.90222 -2.080346,2.903 5.701746,4.07548 12.088486,7.1043 18.165526,10.56752 5.27378,2.78504 10.54697,5.56345 15.89318,8.2036 5.8861,2.85748 11.79181,5.68858 17.77009,8.3551 6.95929,3.10106 13.98475,6.07053 21.09547,8.81606 4.9775,1.92251 9.98766,3.73989 15.03101,5.47807 6.36673,2.13321 12.78679,4.13513 19.28519,5.82723 8.22342,2.23198 16.57786,3.96946 25.00538,5.21384 z M 344.26755,105.6406 c 0.0237,0.45282 0.0573,0.90533 0.10416,1.35702 -0.0468,-0.45169 -0.0805,-0.9042 -0.10416,-1.35702 z m -62.7666,42.22183 c 0.0263,0.32591 0.0573,0.65824 0.056,0.98088 0,-0.32264 -0.0303,-0.65497 -0.056,-0.98088 z m 0.025,1.45632 c -0.0211,0.15466 -0.0553,0.30448 -0.10705,0.44852 -0.0514,0.14399 -0.12016,0.28131 -0.21122,0.41084 -0.0911,0.12952 -0.20443,0.25154 -0.34434,0.36264 0.13991,-0.1111 0.25322,-0.23312 0.34434,-0.36264 0.0911,-0.12953 0.1596,-0.26685 0.21122,-0.41084 0.0514,-0.14404 0.0856,-0.29386 0.10705,-0.44852 z m -58.15845,52.80381 c -0.28595,0.25441 -0.56563,0.51311 -0.82755,0.78411 0.26192,-0.271 0.5416,-0.5297 0.82755,-0.78411 z" />
        <g
           id="g5320"
           transform="translate(4.6e-5)">
          <path
             fill="#31cb71"
             opacity="1"
             d="M 9.47,3.98 C 10.63,2.64 11.79,1.31 12.98,0 15.72,1.54 18,3.72 20.37,5.75 33.27,16.59 46.36,27.2 59.62,37.6 58.2,39.16 56.78,40.72 55.36,42.29 42.06,31.79 28.95,21.02 16.01,10.07 13.7,8.18 11.42,6.25 9.47,3.98 Z"
             id="path2-6-4"
             transform="matrix(0.65840009,0,0,0.65840009,32.152954,37.5)" />
          <path
             fill="#2dc88a"
             opacity="1"
             d="m 101.69,9.31 c -2.32,-2.4 1.96,-3.9 3.35,-5.3 6.56,7.58 13.07,15.21 19.85,22.59 -2,0.85 -3.43,2.42 -4.36,4.37 -6.37,-7.14 -12.79,-14.25 -18.84,-21.66 z"
             id="path5-8-9"
             transform="matrix(0.65840009,0,0,0.65840009,32.152954,37.5)" />
          <path
             fill="#2dc88a"
             opacity="1"
             d="m 89.6,68.63 c 1.66,-1.55 3.46,-2.93 5.42,-4.08 12.81,9.53 25.82,18.78 38.97,27.83 -1.93,1.29 -3.74,2.74 -5.45,4.32 C 115.38,87.59 102.41,78.22 89.6,68.63 Z"
             id="path7-6-3"
             transform="matrix(0.65840009,0,0,0.65840009,32.152954,37.5)" />
          <path
             fill="#2dc88a"
             opacity="1"
             d="m 94.82,114.25 c 0.98,-1.52 1.87,-3.12 3.16,-4.41 8.8,4.53 17.16,9.93 25.96,14.48 -0.54,1.99 -1.04,3.98 -1.53,5.98 -9.23,-5.26 -18.93,-9.86 -27.59,-16.05 z"
             id="path9-8-9"
             transform="matrix(0.65840009,0,0,0.65840009,32.152954,37.5)" />
          <path
             fill="#2ec7b3"
             opacity="1"
             d="m 184.96,17.86 c 1.7,-0.89 3.41,-1.76 5.13,-2.61 5.19,9.09 10.29,18.24 15.75,27.17 -0.65,2.99 -1.01,6.04 -1.57,9.06 C 197.46,40.5 190.7,29.44 184.96,17.86 Z"
             id="path12-9-0"
             transform="matrix(0.65840009,0,0,0.65840009,32.152954,37.5)" />
          <path
             fill="#2cc894"
             opacity="1"
             d="m 120.53,30.97 c 0.93,-1.95 2.36,-3.52 4.36,-4.37 8.54,9.53 17.4,18.76 26.29,27.96 -1.55,1.36 -3.1,2.72 -4.65,4.08 -8.77,-9.13 -17.51,-18.28 -26,-27.67 z"
             id="path15-4-2"
             transform="matrix(0.65840009,0,0,0.65840009,32.152954,37.5)" />
          <path
             fill="#2cc894"
             opacity="1"
             d="m 122.41,130.3 c 0.49,-2 0.99,-3.99 1.53,-5.98 7.77,4.23 15.67,8.22 23.54,12.28 -0.32,2.05 -0.63,4.1 -0.93,6.16 -8.12,-4.01 -16.13,-8.23 -24.14,-12.46 z"
             id="path17-6-2"
             transform="matrix(0.65840009,0,0,0.65840009,32.152954,37.5)" />
          <path
             fill="#2cc894"
             opacity="1"
             d="m 121.18,155.26 c 10.19,3.92 20.48,7.6 30.8,11.17 -0.49,1.93 -0.98,3.86 -1.46,5.8 -10.4,-3.54 -20.72,-7.31 -30.99,-11.21 0.52,-1.93 1.07,-3.85 1.65,-5.76 z"
             id="path19-1-5"
             transform="matrix(0.65840009,0,0,0.65840009,32.152954,37.5)" />
          <path
             fill="#2fca7e"
             opacity="1"
             d="M 59.62,37.6 C 71.3,46.73 83.06,55.78 95.02,64.55 93.06,65.7 91.26,67.08 89.6,68.63 78.06,60.02 66.65,51.24 55.36,42.29 56.78,40.72 58.2,39.16 59.62,37.6 Z"
             id="path22-7-5"
             transform="matrix(0.65840009,0,0,0.65840009,32.152954,37.5)" />
          <path
             fill="#2fc7bf"
             opacity="1"
             d="m 204.27,51.48 c 0.56,-3.02 0.92,-6.07 1.57,-9.06 9.33,15.16 19.23,29.96 29.85,44.24 -1.42,1.55 -2.84,3.11 -4.25,4.67 -9.65,-12.87 -18.69,-26.19 -27.17,-39.85 z"
             id="path25-2-1"
             transform="matrix(0.65840009,0,0,0.65840009,32.152954,37.5)" />
          <path
             fill="#2fc7bf"
             opacity="1"
             d="m 205.58,168.84 c 0.99,-1.98 2.54,-3.53 4.45,-4.65 6.93,2.71 13.96,5.16 20.99,7.58 -0.98,1.74 -1.83,3.55 -2.61,5.39 -7.66,-2.64 -15.27,-5.4 -22.83,-8.32 z"
             id="path27-0-6"
             transform="matrix(0.65840009,0,0,0.65840009,32.152954,37.5)" />
          <path
             fill="#16ace5"
             opacity="1"
             d="m 528.35,52.19 c 2.22,-1.6 5.03,-1.75 7.65,-2.08 -0.11,1.32 -0.12,2.78 -1.42,3.51 -10.72,8.96 -21.53,17.81 -32.36,26.63 -9.91,8.42 -18.66,18.07 -27.73,27.36 -0.94,-5.47 -0.23,-11.02 -0.64,-16.52 -2.67,-0.11 -5.35,-0.2 -8.01,-0.22 2.81,-4.39 5.36,-9.16 9.69,-12.27 6.97,-5.16 15.8,-6.35 23.69,-9.5 10.67,-3.79 19.97,-10.41 29.13,-16.91 z"
             id="path30-0-4"
             transform="matrix(0.65840009,0,0,0.65840009,32.152954,37.5)" />
          <path
             fill="#2dc7a0"
             opacity="1"
             d="m 146.53,58.64 c 1.55,-1.36 3.1,-2.72 4.65,-4.08 7.58,7.59 15.15,15.2 22.96,22.56 -1.46,1.71 -2.23,3.81 -2.69,5.99 -8.47,-7.99 -16.73,-16.2 -24.92,-24.47 z"
             id="path33-2-5"
             transform="matrix(0.65840009,0,0,0.65840009,32.152954,37.5)" />
          <path
             fill="#2ec7ad"
             opacity="1"
             d="m 171.45,83.11 c 0.46,-2.18 1.23,-4.28 2.69,-5.99 8.02,7.6 16.19,15.05 24.52,22.32 -1.35,1.57 -2.7,3.14 -4.04,4.72 -7.86,-6.87 -15.58,-13.89 -23.17,-21.05 z"
             id="path36-8-8"
             transform="matrix(0.65840009,0,0,0.65840009,32.152954,37.5)" />
          <path
             fill="#30c6cb"
             opacity="1"
             d="m 235.69,86.66 c 6.34,8.51 12.95,16.81 19.89,24.84 -1.94,1.78 -1.73,4.59 -2.23,6.97 -7.67,-8.74 -14.98,-17.8 -21.91,-27.14 1.41,-1.56 2.83,-3.12 4.25,-4.67 z"
             id="path39-4-3"
             transform="matrix(0.65840009,0,0,0.65840009,32.152954,37.5)" />
          <path
             fill="#1cb1e8"
             opacity="1"
             d="m 465.84,90.87 c 2.66,0.02 5.34,0.11 8.01,0.22 0.41,5.5 -0.3,11.05 0.64,16.52 -13.59,14.05 -26.99,28.28 -41,41.92 -1.31,-6.27 0.2,-12.7 -1.08,-18.96 12.13,-12.35 23.86,-25.23 33.43,-39.7 z"
             id="path42-6-0"
             transform="matrix(0.65840009,0,0,0.65840009,32.152954,37.5)" />
          <path
             fill="#2dc89b"
             opacity="1"
             d="m 128.54,96.7 c 1.71,-1.58 3.52,-3.03 5.45,-4.32 12.53,8.62 25.23,17 38.12,25.09 -1.66,1.6 -3.28,3.22 -4.88,4.88 -13.09,-8.25 -25.98,-16.83 -38.69,-25.65 z"
             id="path45-1-2"
             transform="matrix(0.65840009,0,0,0.65840009,32.152954,37.5)" />
          <path
             fill="#2ec7b8"
             opacity="1"
             d="m 198.66,99.44 c 6.69,5.8 13.47,11.5 20.4,17.02 -2,0.91 -3.57,2.4 -4.47,4.42 -6.76,-5.45 -13.4,-11.04 -19.97,-16.72 1.34,-1.58 2.69,-3.15 4.04,-4.72 z"
             id="path48-9-3"
             transform="matrix(0.65840009,0,0,0.65840009,32.152954,37.5)" />
          <path
             fill="#2ec7b8"
             opacity="1"
             d="m 196.27,132.12 c 7.87,4.57 15.8,9.05 23.84,13.31 -1.85,1.48 -3.02,3.5 -3.6,5.79 -8.03,-4.29 -15.96,-8.76 -23.81,-13.35 1.19,-1.92 2.38,-3.84 3.57,-5.75 z"
             id="path50-8-7"
             transform="matrix(0.65840009,0,0,0.65840009,32.152954,37.5)" />
          <path
             fill="#32cb6c"
             opacity="1"
             d="m 0.58,106.76 c 0.77,-1.58 1.55,-3.15 2.34,-4.72 12.39,6.01 24.53,12.57 37.05,18.32 -0.62,1.94 -1.23,3.89 -1.85,5.83 C 25.36,119.82 12.15,114.22 0,106.71 v -0.45 c 0.15,0.13 0.44,0.38 0.58,0.5 z"
             id="path53-5-1"
             transform="matrix(0.65840009,0,0,0.65840009,32.152954,37.5)" />
          <path
             fill="#30c6da"
             opacity="1"
             d="m 253.35,118.47 c 0.5,-2.38 0.29,-5.19 2.23,-6.97 11.19,12.9 23.23,25.15 36.66,35.73 -1.41,1.58 -2.81,3.16 -4.19,4.77 -12.65,-9.99 -24.05,-21.46 -34.7,-33.53 z"
             id="path56-9-0"
             transform="matrix(0.65840009,0,0,0.65840009,32.152954,37.5)" />
          <path
             fill="#2fc6c2"
             opacity="1"
             d="m 214.59,120.88 c 0.9,-2.02 2.47,-3.51 4.47,-4.42 6.88,5.55 13.94,10.87 21.12,16.03 -1.53,1.47 -3.03,2.97 -4.5,4.49 -7.17,-5.18 -14.18,-10.57 -21.09,-16.1 z"
             id="path59-9-1"
             transform="matrix(0.65840009,0,0,0.65840009,32.152954,37.5)" />
          <path
             fill="#2ec7ab"
             opacity="1"
             d="m 167.23,122.35 c 1.6,-1.66 3.22,-3.28 4.88,-4.88 7.96,5.03 16.04,9.87 24.16,14.65 -1.19,1.91 -2.38,3.83 -3.57,5.75 -8.59,-5 -17.07,-10.21 -25.47,-15.52 z"
             id="path62-2-8"
             transform="matrix(0.65840009,0,0,0.65840009,32.152954,37.5)" />
          <path
             fill="#30ca79"
             opacity="1"
             d="m 38.12,126.19 c 0.62,-1.94 1.23,-3.89 1.85,-5.83 13.11,6.27 26.35,12.25 39.68,18.01 -1.31,1.61 -2.62,3.22 -3.94,4.83 -12.63,-5.44 -25.16,-11.12 -37.59,-17.01 z"
             id="path65-1-4"
             transform="matrix(0.65840009,0,0,0.65840009,32.152954,37.5)" />
          <path
             fill="#30c6d1"
             opacity="1"
             d="m 235.68,136.98 c 1.47,-1.52 2.97,-3.02 4.5,-4.49 11.1,7.98 22.58,15.44 34.52,22.11 -1.5,1.59 -3.04,3.15 -4.64,4.65 -11.89,-6.73 -23.3,-14.29 -34.38,-22.27 z"
             id="path71-7-2"
             transform="matrix(0.65840009,0,0,0.65840009,32.152954,37.5)" />
          <path
             fill="#2dc7a1"
             opacity="1"
             d="m 147.48,136.6 c 9.12,4.41 18.22,8.88 27.48,13 -0.48,1.95 -0.95,3.9 -1.42,5.85 -9.08,-4.05 -18.05,-8.35 -26.99,-12.69 0.3,-2.06 0.61,-4.11 0.93,-6.16 z"
             id="path74-9-8"
             transform="matrix(0.65840009,0,0,0.65840009,32.152954,37.5)" />
          <path
             fill="#2dc7a1"
             opacity="1"
             d="m 147,195.62 c 9,1.77 18.03,3.38 27.08,4.81 -0.17,2.11 -0.34,4.21 -0.51,6.31 -8.9,-1.39 -17.77,-2.96 -26.6,-4.68 0,-2.15 0.01,-4.3 0.03,-6.44 z"
             id="path76-1-6"
             transform="matrix(0.65840009,0,0,0.65840009,32.152954,37.5)" />
          <path
             fill="#2dc986"
             opacity="1"
             d="m 79.65,138.37 c 13.73,5.91 27.57,11.54 41.53,16.89 -0.58,1.91 -1.13,3.83 -1.65,5.76 -14.73,-5.62 -29.34,-11.56 -43.82,-17.82 1.32,-1.61 2.63,-3.22 3.94,-4.83 z"
             id="path79-8-6"
             transform="matrix(0.65840009,0,0,0.65840009,32.152954,37.5)" />
          <path
             fill="#2fc6c6"
             opacity="1"
             d="m 216.51,151.22 c 0.58,-2.29 1.75,-4.31 3.6,-5.79 9.79,5.29 19.78,10.2 29.91,14.82 -2.09,1.32 -3.91,2.99 -5.45,4.92 -9.51,-4.33 -18.83,-9.07 -28.06,-13.95 z"
             id="path82-0-7"
             transform="matrix(0.65840009,0,0,0.65840009,32.152954,37.5)" />
          <path
             fill="#2ec7b0"
             opacity="1"
             d="m 174.96,149.6 c 11.55,5.2 23.22,10.12 35.07,14.59 -1.91,1.12 -3.46,2.67 -4.45,4.65 -10.8,-4.17 -21.47,-8.68 -32.04,-13.39 0.47,-1.95 0.94,-3.9 1.42,-5.85 z"
             id="path88-9-7"
             transform="matrix(0.65840009,0,0,0.65840009,32.152954,37.5)" />
          <path
             fill="#31c6e0"
             opacity="1"
             d="m 274.7,154.6 c 6.91,3.83 14.01,7.36 21.24,10.56 -0.51,2.08 -1,4.17 -1.49,6.26 -8.37,-3.55 -16.46,-7.72 -24.39,-12.17 1.6,-1.5 3.14,-3.06 4.64,-4.65 z"
             id="path91-9-1"
             transform="matrix(0.65840009,0,0,0.65840009,32.152954,37.5)" />
          <path
             fill="#30c6d3"
             opacity="1"
             d="m 244.57,165.17 c 1.54,-1.93 3.36,-3.6 5.45,-4.92 7.07,3.22 14.21,6.26 21.47,9.04 -1.38,1.83 -2.7,3.71 -3.93,5.64 -7.78,-2.99 -15.43,-6.28 -22.99,-9.76 z"
             id="path94-0-9"
             transform="matrix(0.65840009,0,0,0.65840009,32.152954,37.5)" />
          <path
             fill="#2dc7a5"
             opacity="1"
             d="m 151.98,166.43 c 12.63,4.31 25.36,8.34 38.2,12 -1.24,1.66 -2.41,3.41 -2.9,5.45 -12.34,-3.62 -24.62,-7.43 -36.76,-11.65 0.48,-1.94 0.97,-3.87 1.46,-5.8 z"
             id="path97-4-6"
             transform="matrix(0.65840009,0,0,0.65840009,32.152954,37.5)" />
          <path
             fill="#31c6df"
             opacity="1"
             d="m 271.49,169.29 c 8.08,3.11 16.28,5.91 24.63,8.24 -0.03,2.24 -0.05,4.48 -0.07,6.72 -9.67,-2.55 -19.17,-5.72 -28.49,-9.32 1.23,-1.93 2.55,-3.81 3.93,-5.64 z"
             id="path100-4-6"
             transform="matrix(0.65840009,0,0,0.65840009,32.152954,37.5)" />
          <path
             fill="#30c6cc"
             opacity="1"
             d="m 231.02,171.77 c 10.55,3.53 21.21,6.71 31.99,9.45 -1.99,1.34 -3.76,2.96 -5.31,4.79 -9.87,-2.57 -19.62,-5.61 -29.29,-8.85 0.78,-1.84 1.63,-3.65 2.61,-5.39 z"
             id="path103-0-0"
             transform="matrix(0.65840009,0,0,0.65840009,32.152954,37.5)" />
          <path
             fill="#2ec7b6"
             opacity="1"
             d="m 190.18,178.43 c 9.15,2.67 18.37,5.06 27.63,7.3 -0.38,1.98 -0.76,3.96 -1.13,5.94 -9.87,-2.31 -19.65,-5.02 -29.4,-7.79 0.49,-2.04 1.66,-3.79 2.9,-5.45 z"
             id="path106-6-8"
             transform="matrix(0.65840009,0,0,0.65840009,32.152954,37.5)" />
          <path
             fill="#31c6dd"
             opacity="1"
             d="m 257.7,186.01 c 1.55,-1.83 3.32,-3.45 5.31,-4.79 10.47,2.66 21.08,4.86 31.77,6.47 0.27,2.08 0.57,4.17 0.9,6.24 -12.8,-1.89 -25.49,-4.53 -37.98,-7.92 z"
             id="path109-4-0"
             transform="matrix(0.65840009,0,0,0.65840009,32.152954,37.5)" />
          <path
             fill="#31c6dd"
             opacity="1"
             d="m 261.09,208.5 c 11.67,0.08 23.34,-0.02 34.99,-0.81 -0.04,2.1 -0.09,4.2 -0.13,6.31 -13.76,0.93 -27.56,0.88 -41.34,0.59 2.07,-0.33 4.12,-0.72 6.18,-1.09 0.1,-1.67 0.19,-3.34 0.3,-5 z"
             id="path111-8-1"
             transform="matrix(0.65840009,0,0,0.65840009,32.152954,37.5)" />
          <path
             fill="#2dc988"
             opacity="1"
             d="m 87.7,188.04 c 0.4,-2.1 1.02,-4.16 2.13,-6 9.96,2.94 20.05,5.4 30.15,7.81 0.04,2.17 0.07,4.34 0.11,6.52 -10.87,-2.5 -21.69,-5.22 -32.39,-8.33 z"
             id="path114-2-5"
             transform="matrix(0.65840009,0,0,0.65840009,32.152954,37.5)" />
          <path
             fill="#2dc988"
             opacity="1"
             d="m 68.21,414.07 c 23.87,-18.3 48.1,-36.16 72.13,-54.26 0.44,2.21 0.87,4.42 1.3,6.64 -23.27,17.41 -46.44,34.94 -69.79,52.23 -1.27,-1.49 -2.48,-3.03 -3.64,-4.61 z"
             id="path116-6-8"
             transform="matrix(0.65840009,0,0,0.65840009,32.152954,37.5)" />
          <path
             fill="#2fc6c8"
             opacity="1"
             d="m 217.81,185.73 c 12.1,2.91 24.31,5.39 36.59,7.46 -0.16,2.02 -0.32,4.05 -0.48,6.08 -12.51,-2.05 -24.92,-4.66 -37.24,-7.6 0.37,-1.98 0.75,-3.96 1.13,-5.94 z"
             id="path119-4-0"
             transform="matrix(0.65840009,0,0,0.65840009,32.152954,37.5)" />
          <path
             fill="#2cc893"
             opacity="1"
             d="m 119.98,189.85 c 8.97,2.09 17.98,4 27.02,5.77 -0.02,2.14 -0.03,4.29 -0.03,6.44 -8.99,-1.77 -17.96,-3.62 -26.88,-5.69 -0.04,-2.18 -0.07,-4.35 -0.11,-6.52 z"
             id="path122-4-1"
             transform="matrix(0.65840009,0,0,0.65840009,32.152954,37.5)" />
          <path
             fill="#31c6db"
             opacity="1"
             d="m 254.4,193.19 c 13.46,2.18 27.01,3.79 40.62,4.53 -0.05,2.03 -0.09,4.06 -0.13,6.09 -13.73,-0.69 -27.4,-2.35 -40.97,-4.54 0.16,-2.03 0.32,-4.06 0.48,-6.08 z"
             id="path125-7-6"
             transform="matrix(0.65840009,0,0,0.65840009,32.152954,37.5)" />
          <path
             fill="#2ec7af"
             opacity="1"
             d="m 174.08,200.43 c 9,1.44 18.02,2.69 27.06,3.8 -0.05,2.1 -0.09,4.21 -0.13,6.32 -9.17,-1.08 -18.32,-2.35 -27.44,-3.81 0.17,-2.1 0.34,-4.2 0.51,-6.31 z"
             id="path128-2-5"
             transform="matrix(0.65840009,0,0,0.65840009,32.152954,37.5)" />
          <path
             fill="#2fc7bd"
             opacity="1"
             d="m 201.14,204.23 c 10.09,1.22 20.22,2.16 30.36,2.92 -0.23,2.08 -0.46,4.17 -0.68,6.26 -9.96,-0.71 -19.9,-1.7 -29.81,-2.86 0.04,-2.11 0.08,-4.22 0.13,-6.32 z"
             id="path131-3-0"
             transform="matrix(0.65840009,0,0,0.65840009,32.152954,37.5)" />
          <path
             fill="#30c6cd"
             opacity="1"
             d="m 231.5,207.15 c 9.85,0.71 19.72,1.11 29.59,1.35 -0.11,1.66 -0.2,3.33 -0.3,5 -2.06,0.37 -4.11,0.76 -6.18,1.09 -7.94,-0.18 -15.87,-0.63 -23.79,-1.18 0.22,-2.09 0.45,-4.18 0.68,-6.26 z"
             id="path134-1-1"
             transform="matrix(0.65840009,0,0,0.65840009,32.152954,37.5)" />
          <path
             fill="#30c6cd"
             opacity="1"
             d="m 231.84,230.59 c 9.7,-0.84 19.38,-1.97 29.03,-3.31 0.04,2.11 0.08,4.22 0.12,6.34 -9.48,1.34 -19.01,2.37 -28.55,3.23 -0.21,-2.09 -0.41,-4.17 -0.6,-6.26 z"
             id="path136-4-2"
             transform="matrix(0.65840009,0,0,0.65840009,32.152954,37.5)" />
          <path
             fill="#31c6de"
             opacity="1"
             d="m 260.87,227.28 c 11.81,-1.64 23.55,-3.75 35.2,-6.3 -0.03,2.16 -0.07,4.32 -0.1,6.48 -11.56,2.54 -23.25,4.52 -34.98,6.16 -0.04,-2.12 -0.08,-4.23 -0.12,-6.34 z"
             id="path139-9-8"
             transform="matrix(0.65840009,0,0,0.65840009,32.152954,37.5)" />
          <path
             fill="#2fc7c0"
             opacity="1"
             d="m 207.09,232.31 c 8.26,-0.4 16.51,-1.01 24.75,-1.72 0.19,2.09 0.39,4.17 0.6,6.26 -8.48,0.75 -16.97,1.33 -25.47,1.77 0.04,-2.11 0.08,-4.21 0.12,-6.31 z"
             id="path142-5-6"
             transform="matrix(0.65840009,0,0,0.65840009,32.152954,37.5)" />
          <path
             fill="#2dc7a4"
             opacity="1"
             d="m 155.31,233.23 c 9.23,-0.57 18.53,0.48 27.78,-0.14 -3.21,0.64 -3.25,3.71 -3.27,6.41 -8.02,0.05 -16.04,-0.04 -24.05,-0.26 -0.79,-1.9 -1.14,-4.02 -0.46,-6.01 z"
             id="path145-8-6"
             transform="matrix(0.65840009,0,0,0.65840009,32.152954,37.5)" />
          <path
             fill="#2ec7b2"
             opacity="1"
             d="m 183.09,233.09 c 8.01,-0.13 16.01,-0.35 24,-0.78 -0.04,2.1 -0.08,4.2 -0.12,6.31 -9.05,0.48 -18.1,0.64 -27.15,0.88 0.02,-2.7 0.06,-5.77 3.27,-6.41 z"
             id="path148-9-0"
             transform="matrix(0.65840009,0,0,0.65840009,32.152954,37.5)" />
          <path
             fill="#30c6d6"
             opacity="1"
             d="m 247.6,279.39 c 15.89,-12.09 31.88,-24.05 47.9,-35.97 -0.79,4.69 -6.49,6.36 -8.26,10.58 0.18,0.69 0.55,2.06 0.74,2.75 -17.26,12.89 -34.48,25.81 -51.73,38.71 -0.75,-4.01 3.12,-6.18 5.42,-8.73 2.12,-2.3 5.19,-4.1 5.93,-7.34 z"
             id="path151-0-8"
             transform="matrix(0.65840009,0,0,0.65840009,32.152954,37.5)" />
          <path
             fill="#30c6cf"
             opacity="1"
             d="m 221.52,319.78 c 19.84,-16.58 39.62,-33.23 59.44,-49.84 0.12,2.58 0.28,5.15 0.48,7.72 -19.5,16.36 -39.03,32.69 -58.55,49.02 -0.55,-2.28 -0.99,-4.59 -1.37,-6.9 z"
             id="path211-6-1"
             transform="matrix(0.65840009,0,0,0.65840009,32.152954,37.5)" />
          <path
             fill="#2fc7ba"
             opacity="1"
             d="m 185.6,325.78 c 20.7,-15.41 41.22,-31.08 62,-46.39 -0.74,3.24 -3.81,5.04 -5.93,7.34 -2.3,2.55 -6.17,4.72 -5.42,8.73 -16.44,12.42 -32.96,24.72 -49.43,37.09 -0.58,-2.22 -0.98,-4.49 -1.22,-6.77 z"
             id="path214-9-3"
             transform="matrix(0.65840009,0,0,0.65840009,32.152954,37.5)" />
          <path
             fill="#2ec7b4"
             opacity="1"
             d="m 174.1,359.58 c 15.78,-13.3 31.61,-26.53 47.42,-39.8 0.38,2.31 0.82,4.62 1.37,6.9 -16.65,14.01 -33.36,27.95 -50.05,41.92 -1.44,-3.07 0.74,-6.01 1.26,-9.02 z"
             id="path217-9-0"
             transform="matrix(0.65840009,0,0,0.65840009,32.152954,37.5)" />
          <path
             fill="#2dc7a2"
             opacity="1"
             d="m 140.34,359.81 c 15.03,-11.42 30.18,-22.68 45.26,-34.03 0.24,2.28 0.64,4.55 1.22,6.77 -15.04,11.34 -30.14,22.58 -45.18,33.9 -0.43,-2.22 -0.86,-4.43 -1.3,-6.64 z"
             id="path220-7-1"
             transform="matrix(0.65840009,0,0,0.65840009,32.152954,37.5)" />
          <path
             fill="#2dc89c"
             opacity="1"
             d="m 130.8,395.83 c 14.45,-12.06 28.82,-24.22 43.3,-36.25 -0.52,3.01 -2.7,5.95 -1.26,9.02 -13.79,11.63 -27.65,23.17 -41.48,34.75 -0.2,-2.51 -0.39,-5.01 -0.56,-7.52 z"
             id="path223-4-9"
             transform="matrix(0.65840009,0,0,0.65840009,32.152954,37.5)" />
          <path
             fill="#2dc889"
             opacity="1"
             d="m 88.88,430.97 c 13.99,-11.7 27.95,-23.42 41.92,-35.14 0.17,2.51 0.36,5.01 0.56,7.52 -13.94,11.74 -27.94,23.39 -41.89,35.11 -0.23,-2.5 -0.43,-5 -0.59,-7.49 z"
             id="path226-3-9"
             transform="matrix(0.65840009,0,0,0.65840009,32.152954,37.5)" />
          <path
             fill="#2fca7f"
             opacity="1"
             d="m 65.06,451.04 c 7.85,-6.8 15.91,-13.35 23.82,-20.07 0.16,2.49 0.36,4.99 0.59,7.49 -6.88,5.72 -13.69,11.55 -20.63,17.19 -1.31,-1.5 -2.57,-3.04 -3.78,-4.61 z"
             id="path229-9-6"
             transform="matrix(0.65840009,0,0,0.65840009,32.152954,37.5)" />
          <path
             id="path68-0-4"
             style="fill:#25baed;fill-opacity:1;stroke-width:0.999997"
             d="m 432.4105,130.56983 c -10.15001,11.13 -22.6497,19.92994 -35.9297,26.93994 -5.71,3.34 -11.63077,6.2892 -17.80078,8.6792 l -2.8916,1.06348 -2.81836,0.92285 v 9.65771 c -0.0465,0.35697 -0.0521,0.73378 0,1.13672 v 0.003 c 0.0499,7.53904 -0.43017,15.11841 0.44971,22.62744 8.18,-6.56 16.44033,-13.01986 24.59033,-19.60986 12.33,-10.26 23.98998,-21.29094 35.47998,-32.46094 -1.31,-6.27 0.20041,-12.69947 -1.07958,-18.95947 z m -53.73341,36.39111 c 6.3e-4,0.0145 0.002,0.0295 0.003,0.0439 v 1.17041 h -0.007 z"
             transform="matrix(0.65840009,0,0,0.65840009,32.152954,37.5)" />
          <path
             id="path85-9-6"
             style="fill:#30c3f1;fill-opacity:1;stroke-width:1"
             d="m 292.24,147.23 c -1.40999,1.58 -2.81162,3.16009 -4.19161,4.77008 14.75999,11.48 31.42192,21.71037 50.17192,24.74037 -14.70999,-0.81999 -28.82111,-5.90813 -42.28111,-11.57813 -0.51,2.08 -0.99917,4.16926 -1.48917,6.25925 15.44999,6.59 31.84835,11.4599 48.71835,12.1299 -15.90999,1.12001 -31.78822,-1.73897 -47.04823,-6.01897 -0.0299,2.23999 -0.0512,4.47906 -0.0712,6.71906 12.13999,3.21 24.59878,5.35816 37.17877,5.64817 -12.82999,1.00999 -25.73843,-0.50003 -38.44843,-2.21003 0.27001,2.08 0.56885,4.17146 0.89883,6.24145 15.39001,1.95 31.08021,3.47898 46.52021,1.32898 -2.7,0.74001 -5.42822,1.38123 -8.20823,1.66122 -12.95,1.29001 -25.99053,1.50096 -38.97053,0.80096 -0.05,2.03 -0.0905,4.06016 -0.13047,6.09016 13.12001,1 26.24025,-0.0106 39.35026,-0.4509 -12.68001,1.78 -25.36069,3.62808 -38.16069,4.32808 -0.0399,2.1 -0.0905,4.20265 -0.13047,6.31265 13.83,-0.77 27.55099,-2.70238 41.23098,-4.83238 -13.45,4.76 -27.16936,8.76249 -41.10935,11.81249 -0.0299,2.15999 -0.0709,4.31877 -0.10085,6.47878 10.78,-2.29001 21.39966,-5.24063 31.96966,-8.35062 -10.87999,8.02 -21.65836,16.16023 -32.43836,24.31023 -0.79,4.68999 -6.49163,6.3614 -8.26163,10.58141 0.18001,0.68997 0.55163,2.05991 0.74163,2.74991 18.62,-13.97001 37.24864,-27.91141 55.85865,-41.90141 1.75,-1.32 3.88888,-1.94016 5.93888,-2.64016 -22.90001,19.29 -45.85918,38.5205 -68.81917,57.73051 0.11999,2.57999 0.28057,5.14875 0.48056,7.71875 30.64,-25.37 60.62139,-51.55737 91.98138,-76.05735 l 16.95932,-40.62879 -6.99198,3.26608 -4.70779,1.95193 -2.95833,1.08091 -2.28638,0.74347 c -11.13191,3.54342 -23.03581,5.04433 -34.55644,2.71432 C 321.53899,167.32039 305.99012,158.03 292.24012,147.23 Z"
             sodipodi:nodetypes="scccccccccccccccccccccccccccccccccccss"
             transform="matrix(0.65840009,0,0,0.65840009,32.152954,37.5)" />
          <path
             style="fill:none;stroke:none;stroke-width:1px;stroke-linecap:butt;stroke-linejoin:miter;stroke-opacity:1"
             d="m 278.01272,170.23346 11.16747,-26.74851 -4.60478,2.14889 -3.09951,1.28567 -3.75942,1.30712 0.29624,22.00683"
             id="path973" />
        </g>
      </g>
    </g>
  </g>
</svg>
